<svg width="40" height="40" viewBox="0 0 40 40" fill="none" xmlns="http://www.w3.org/2000/svg">
<path d="M7.97916 32.0208C6.80759 30.8492 6.80759 28.9497 7.97916 27.7782L27.7781 7.97917C28.9497 6.8076 30.8492 6.8076 32.0208 7.97917C33.1924 9.15075 33.1924 11.0502 32.0208 12.2218L12.2218 32.0208C11.0502 33.1924 9.15073 33.1924 7.97916 32.0208Z" fill="#4A4A4A"/>
<path d="M7.97914 7.97919C9.15072 6.80761 11.0502 6.80761 12.2218 7.97919L32.0208 27.7782C33.1923 28.9497 33.1923 30.8492 32.0208 32.0208C30.8492 33.1924 28.9497 33.1924 27.7781 32.0208L7.97914 12.2218C6.80757 11.0503 6.80757 9.15076 7.97914 7.97919Z" fill="#4A4A4A"/>
</svg>
